<svg version="1.0" xmlns="http://www.w3.org/2000/svg" width="1052" height="1052" viewBox="0 0 789 789"><path d="M140.4 66.2c-2.9.8-6 3.3-7.7 6.3-.8 1.3-1.2 11.1-1.2 29.5-.1 15.2-.4 28-.7 28.5-.4.6-11.1 1-28.2.9-38.8-.1-36.9-1.8-36.9 31.4 0 12.5.3 24.2.7 26 .5 1.9 2.1 4.2 4.2 5.8l3.4 2.6h57.5l-.1 27.7c-.2 40.2-1.8 38.3 33.1 38.3 22.1 0 23.7-.2 26.9-2.1 5.5-3.4 5.8-5.1 5.8-35.9l.1-28h27.6c15.2.1 28.8-.3 30.1-.7 2.8-.9 5.3-3.1 6.9-6.3.8-1.5 1.2-9.7 1.2-25.7.1-34.7 2.1-32.9-37.1-33.2-15.1-.1-27.8-.2-28.1-.2-.4-.1-.7-12.6-.7-27.9 0-39.4 1.7-37.5-32-37.6-12.2-.1-23.4.2-24.8.6zM337.3 132.2c-4.4 1.1-8.3 6.1-8.4 10.6-.1 2-.1 13.2-.2 24.8 0 20.4 0 21.2 2.2 24.3 1.3 1.8 3.5 3.7 5 4.3 4.1 1.6 179.2 1.4 183.1-.2 1.6-.7 3.9-2.7 5-4.5 1.9-3 2-5 2.1-25.3 0-12.1-.3-23.6-.6-25.6-.8-4-5.3-8.5-8.8-8.8-8-.6-176.9-.2-179.4.4zM599.3 132.5c-1.7.7-4.1 2.7-5.4 4.4l-2.2 3.1v56.7c0 58.6 0 59.2 3.9 63 .7.7 2.5 1.8 4.1 2.4 3.9 1.5 47.6 1.3 50.6-.2 2.9-1.5 6.7-5.8 6.8-7.8.1-.9.3-26.6.4-57.1.1-39-.1-55.9-.9-56.9-.6-.8-1-1.6-.8-1.8.6-.7-1.4-3.1-4.3-4.9-2.6-1.7-5.1-1.9-26-2-16.9-.1-24 .2-26.2 1.1zM390.7 262.6c-.2.2-2.2.6-4.3.9-9.2 1-28.4 8.3-28.4 10.7 0 .4-.5.8-1.1.8-2.2 0-14.2 12.1-17.6 17.8-10.8 18-13.4 37.1-7.6 55.7.9 2.7 1.9 5.4 2.3 6 .5.5.9 1.4.9 2 .3 2.6 8.1 13.6 13.5 19.1 16.7 16.7 40.8 22.8 64.5 16.4 2.4-.6 5.1-1.5 6-1.9 8.3-4.2 11.3-5.9 15.9-9.4 9.3-7.1 17.7-18.5 21.7-29.7 6.2-17.2 4.8-37-3.8-53-10.6-19.9-30.6-33.1-52.2-34.6-3.8-.3-7.5-.7-8.2-.9-.6-.2-1.3-.2-1.6.1zM140.2 329.4c-3.7 1.2-6.2 3.5-7.7 7.1-1.8 4.3-1.4 112.6.4 117.2 2.3 5.9 5.7 6.7 30.6 6.8 12.1 0 23.5-.4 25.4-.9 1.8-.6 4.4-2.5 5.8-4.3l2.6-3.3-.1-57.4c0-39-.4-58.1-1.1-59.5-.6-1.1-2.5-3-4.2-4.2-3-2.1-4.1-2.2-26-2.3-12.6-.1-24.1.3-25.7.8zM602.1 328.8c-3.6.5-7 3.1-8.8 6.6-1.4 2.7-1.6 9.7-1.6 59.2 0 54.1 0 56.3 1.9 59.5 3.5 5.9 5.3 6.3 30.9 6.3 25 0 27-.4 30.9-5.7 2.1-2.8 2.1-3.6 2.2-59.4 0-61.8.2-60.3-5.8-64.6-2.5-1.9-4.4-2-25-2.1-12.3-.1-23.4.1-24.7.2zM377.6 427.7c-.1.2-3.4.5-7.2.8-3.8.3-7.6.8-8.4 1-.8.3-3.3.7-5.5 1-8.2 1.3-23.2 5.4-29.4 8.2-1.8.8-3.9 1.6-4.5 1.7-2.1.4-16.1 7.9-20.6 11-14 9.8-24.5 22-31 35.9-3.1 6.7-7.5 21.5-6.6 22.4.2.3.1 1.5-.4 2.7-1.3 3.5 2 9.9 6.1 11.9 2.9 1.3 15.5 2.4 19.4 1.7.6-.2 1.4-.2 2 0 1.1.2 45.7.1 46.5-.1.3-.1.9-.1 1.5.1 1.1.2 45.7.1 46.5-.1.3-.1.9-.1 1.5.1 1.1.2 45.7.1 46.5-.1.3-.1.9-.1 1.5.1 1.1.2 45.7.1 46.5-.1.3-.1 1 0 1.5.1.6.1 8.2.1 16.9.1 14-.1 16.3-.4 19.2-2.1 3.7-2.4 5.9-7 5.6-12-.8-10.1-7-26.4-14.2-37-4.3-6.4-15.7-18.1-20-20.7-1.7-.9-3-2.1-3-2.5 0-.4-.5-.8-1.1-.8-.6 0-2.3-.9-3.8-2-3.9-2.7-17.9-9.5-22.6-10.9-2.2-.7-4.9-1.6-6-2.1-2.1-1-13.5-4-17-4.6-1.1-.2-4.7-.8-8-1.3-11.4-1.9-17.1-2.3-34.3-2.5-9.5-.1-17.4 0-17.6.1zM140.1 526.7c-3.8 1.3-6.2 3.6-7.8 7.3-.6 1.6-1 21.9-.9 58.5.2 60.4.1 59.6 5.5 63.2 2.3 1.5 5.8 1.7 26.8 1.8 21.8.2 24.6 0 27.2-1.6 6.6-4 6.3-1.2 6.3-61.6-.1-30.2-.1-56.2-.1-57.8-.1-3.2-3.2-7.4-6.8-9.3-2.4-1.3-27.1-2-29.1-.8-.6.4-1.2.4-1.2-.1 0-1.2-16-.9-19.9.4zM604 526c-5.9.7-10.6 4.2-11.7 8.9-.5 2-.9 15.6-.8 30.2v26.6h-27c-14.8 0-28.3.3-30 .7-3.5.9-6.1 3.4-7.6 7.3-1.2 3.1-1.5 45.9-.3 49.6 1 3.1 6 7.7 8.6 7.8 1.3.1 14 .3 28.3.4 14.3.2 26.5.3 27 .4.6.1 1 9.5 1 26.3-.1 14.5.3 28 .8 30.1.7 2.5 2.1 4.7 4.4 6.4l3.4 2.6h24.3c21.7 0 24.6-.2 27.3-1.8 5.4-3.2 5.6-4.6 5.9-34.5.1-15.1.3-28 .3-28.5.1-.6 10.3-1 28.5-1 38.9 0 37.2 1.4 36.9-31.2 0-11.4-.2-22.2-.2-24-.1-3.9-4.4-8.9-8.6-9.9-1.6-.4-15-.7-29.7-.7H658l-.1-2.6c-.1-1.4-.2-13.6-.4-27.1-.1-13.5-.2-25.5-.3-26.7-.2-2.1-5.2-8.2-6.9-8.4-.4 0-1.7-.2-2.8-.5-3.7-.8-21-.8-22.3 0-.6.4-1.2.4-1.2-.1 0-.9-13.1-1.1-20-.3zM272.7 592.1c-9.2 2.5-9.7 4.1-9.7 32.6 0 22.1.2 24 2 27.1 1.1 1.8 3.4 3.9 5 4.6 2.4 1 22.8 1.2 92.4 1.2 89.1-.1 89.5-.1 92.3-2.2 5.4-4 5.7-5.8 5.7-31.4 0-25.7-.2-26.7-6.2-30.6-2.4-1.6-9.2-1.7-90.9-1.8-48.6-.1-89.4.2-90.6.5z"/></svg>