<?xml version="1.0" standalone="no"?>
<!DOCTYPE svg PUBLIC "-//W3C//DTD SVG 20010904//EN"
 "http://www.w3.org/TR/2001/REC-SVG-20010904/DTD/svg10.dtd">
<svg version="1.0" xmlns="http://www.w3.org/2000/svg"
 width="789.000000pt" height="789.000000pt" viewBox="0 0 789.000000 789.000000"
 preserveAspectRatio="xMidYMid meet">
<metadata>
Created by potrace 1.11, written by Peter Selinger 2001-2013
</metadata>
<g transform="translate(0.000000,789.000000) scale(0.100000,-0.100000)"
fill="#000000" stroke="none">
<path d="M1404 7228 c-29 -8 -60 -33 -77 -63 -8 -13 -12 -111 -12 -295 -1
-152 -4 -280 -7 -285 -4 -6 -111 -10 -282 -9 -388 1 -369 18 -369 -314 0 -125
3 -242 7 -260 5 -19 21 -42 42 -58 l34 -26 287 0 288 0 -1 -277 c-2 -402 -18
-383 331 -383 221 0 237 2 269 21 55 34 58 51 58 359 l1 280 276 0 c152 -1
288 3 301 7 28 9 53 31 69 63 8 15 12 97 12 257 1 347 21 329 -371 332 -151 1
-278 2 -281 2 -4 1 -7 126 -7 279 0 394 17 375 -320 376 -122 1 -234 -2 -248
-6z"/>
<path d="M3373 6568 c-44 -11 -83 -61 -84 -106 -1 -20 -1 -132 -2 -248 0 -204
0 -212 22 -243 13 -18 35 -37 50 -43 41 -16 1792 -14 1831 2 16 7 39 27 50 45
19 30 20 50 21 253 0 121 -3 236 -6 256 -8 40 -53 85 -88 88 -80 6 -1769 2
-1794 -4z"/>
<path d="M5993 6565 c-17 -7 -41 -27 -54 -44 l-22 -31 0 -567 c0 -586 0 -592
39 -630 7 -7 25 -18 41 -24 39 -15 476 -13 506 2 29 15 67 58 68 78 1 9 3 266
4 571 1 390 -1 559 -9 569 -6 8 -10 16 -8 18 6 7 -14 31 -43 49 -26 17 -51 19
-260 20 -169 1 -240 -2 -262 -11z"/>
<path d="M3907 5264 c-2 -2 -22 -6 -43 -9 -92 -10 -284 -83 -284 -107 0 -4 -5
-8 -11 -8 -22 0 -142 -121 -176 -178 -108 -180 -134 -371 -76 -557 9 -27 19
-54 23 -60 5 -5 9 -14 9 -20 3 -26 81 -136 135 -191 167 -167 408 -228 645
-164 24 6 51 15 60 19 83 42 113 59 159 94 93 71 177 185 217 297 62 172 48
370 -38 530 -106 199 -306 331 -522 346 -38 3 -75 7 -82 9 -6 2 -13 2 -16 -1z"/>
<path d="M1402 4596 c-37 -12 -62 -35 -77 -71 -18 -43 -14 -1126 4 -1172 23
-59 57 -67 306 -68 121 0 235 4 254 9 18 6 44 25 58 43 l26 33 -1 574 c0 390
-4 581 -11 595 -6 11 -25 30 -42 42 -30 21 -41 22 -260 23 -126 1 -241 -3
-257 -8z"/>
<path d="M6021 4602 c-36 -5 -70 -31 -88 -66 -14 -27 -16 -97 -16 -592 0 -541
0 -563 19 -595 35 -59 53 -63 309 -63 250 0 270 4 309 57 21 28 21 36 22 594
0 618 2 603 -58 646 -25 19 -44 20 -250 21 -123 1 -234 -1 -247 -2z"/>
<path d="M3776 3613 c-1 -2 -34 -5 -72 -8 -38 -3 -76 -8 -84 -10 -8 -3 -33 -7
-55 -10 -82 -13 -232 -54 -294 -82 -18 -8 -39 -16 -45 -17 -21 -4 -161 -79
-206 -110 -140 -98 -245 -220 -310 -359 -31 -67 -75 -215 -66 -224 2 -3 1 -15
-4 -27 -13 -35 20 -99 61 -119 29 -13 155 -24 194 -17 6 2 14 2 20 0 11 -2
457 -1 465 1 3 1 9 1 15 -1 11 -2 457 -1 465 1 3 1 9 1 15 -1 11 -2 457 -1
465 1 3 1 9 1 15 -1 11 -2 457 -1 465 1 3 1 10 0 15 -1 6 -1 82 -1 169 -1 140
1 163 4 192 21 37 24 59 70 56 120 -8 101 -70 264 -142 370 -43 64 -157 181
-200 207 -17 9 -30 21 -30 25 0 4 -5 8 -11 8 -6 0 -23 9 -38 20 -39 27 -179
95 -226 109 -22 7 -49 16 -60 21 -21 10 -135 40 -170 46 -11 2 -47 8 -80 13
-114 19 -171 23 -343 25 -95 1 -174 0 -176 -1z"/>
<path d="M1401 2623 c-38 -13 -62 -36 -78 -73 -6 -16 -10 -219 -9 -585 2 -604
1 -596 55 -632 23 -15 58 -17 268 -18 218 -2 246 0 272 16 66 40 63 12 63 616
-1 302 -1 562 -1 578 -1 32 -32 74 -68 93 -24 13 -271 20 -291 8 -6 -4 -12 -4
-12 1 0 12 -160 9 -199 -4z"/>
<path d="M6040 2630 c-59 -7 -106 -42 -117 -89 -5 -20 -9 -156 -8 -302 l0
-266 -270 0 c-148 0 -283 -3 -300 -7 -35 -9 -61 -34 -76 -73 -12 -31 -15 -459
-3 -496 10 -31 60 -77 86 -78 13 -1 140 -3 283 -4 143 -2 265 -3 270 -4 6 -1
10 -95 10 -263 -1 -145 3 -280 8 -301 7 -25 21 -47 44 -64 l34 -26 243 0 c217
0 246 2 273 18 54 32 56 46 59 345 1 151 3 280 3 285 1 6 103 10 285 10 389 0
372 -14 369 312 0 114 -2 222 -2 240 -1 39 -44 89 -86 99 -16 4 -150 7 -297 7
l-268 0 -1 26 c-1 14 -2 136 -4 271 -1 135 -2 255 -3 267 -2 21 -52 82 -69 84
-4 0 -17 2 -28 5 -37 8 -210 8 -223 0 -6 -4 -12 -4 -12 1 0 9 -131 11 -200 3z"/>
<path d="M2727 1969 c-92 -25 -97 -41 -97 -326 0 -221 2 -240 20 -271 11 -18
34 -39 50 -46 24 -10 228 -12 924 -12 891 1 895 1 923 22 54 40 57 58 57 314
0 257 -2 267 -62 306 -24 16 -92 17 -909 18 -486 1 -894 -2 -906 -5z"/>
</g>
</svg>
